<?xml version="1.0" encoding="utf-8"?><svg version="1.1" id="Layer_1" xmlns="http://www.w3.org/2000/svg" xmlns:xlink="http://www.w3.org/1999/xlink" x="0px" y="0px" viewBox="0 0 123.38 114.96" style="enable-background:new 0 0 123.38 114.96" xml:space="preserve"><style type="text/css">.st0{fill-rule:evenodd;clip-rule:evenodd;stroke:#000000;stroke-width:0.5;stroke-miterlimit:2.6131;}</style><g><path class="st0" d="M41.49,50.31h7.25V35.72c0-2.07,1.69-3.76,3.76-3.76l0,0c2.07,0,3.76,1.69,3.76,3.76v14.59h11.05V35.72 c0-2.07,1.69-3.76,3.76-3.76l0,0c2.07,0,3.76,1.69,3.76,3.76v14.59h7.06c1.31,0,2.38,1.07,2.38,2.38v2.76 c0,1.31-1.07,2.38-2.38,2.38h-40.4c-1.31,0-2.38-1.07-2.38-2.38v-2.76C39.11,51.38,40.18,50.31,41.49,50.31L41.49,50.31z M51.86,59.96h20.04v2.98H51.86V59.96L51.86,59.96z M34.12,106.63c2.05,1.26,2.69,3.95,1.43,6c-1.26,2.05-3.95,2.69-6,1.43 c-8.93-5.49-16.36-13.23-21.51-22.43c-4.96-8.87-7.79-19.09-7.79-29.94c0-16.97,6.88-32.33,18-43.44c11.12-11.12,26.48-18,43.44-18 c16.97,0,32.35,6.81,43.48,17.86c11.1,11.03,17.96,26.28,17.96,43.21c0,21.97-12.27,37.39-26.04,44.32 c-5.09,2.57-10.43,3.98-15.48,4.17c-5.28,0.19-10.28-0.97-14.42-3.58c-7.25-4.57-11.72-13.27-10.35-26.52 c-9.37-1.49-13.48-6.43-13.48-16.09l0-5.76h37.06v5.19c0,9.78-4.59,15.77-14.77,16.75l-0.05,0c-1.21,9.93,1.55,16.12,6.22,19.06 c2.62,1.65,5.91,2.38,9.47,2.25c3.8-0.14,7.89-1.24,11.87-3.24c11.23-5.65,21.23-18.34,21.23-36.55c0-14.53-5.87-27.6-15.37-37.04 C89.49,14.81,76.29,8.98,61.69,8.98c-14.56,0-27.73,5.9-37.27,15.44C14.88,33.96,8.98,47.13,8.98,61.69 c0,9.35,2.42,18.12,6.67,25.71C20.05,95.27,26.43,101.9,34.12,106.63L34.12,106.63z"/></g></svg>