<?xml version="1.0" encoding="UTF-8" standalone="no"?> <svg width="64" height="64" viewBox="0 0 64 64" fill="none" xmlns="http://www.w3.org/2000/svg">
<path d="M55.58 37.11H33.5V19.39C33.5 18.9922 33.342 18.6107 33.0607 18.3294C32.7794 18.0481 32.3978 17.89 32 17.89C31.6022 17.89 31.2206 18.0481 30.9393 18.3294C30.658 18.6107 30.5 18.9922 30.5 19.39V37.11H8.42C6.8551 37.11 5.35386 37.7296 4.2445 38.8333C3.13514 39.9371 2.50793 41.4351 2.5 43V51.75C2.50157 53.2099 3.04253 54.6178 4.01895 55.7031C4.99537 56.7884 6.33839 57.4747 7.79 57.63V60C7.79 60.3978 7.94804 60.7794 8.22934 61.0607C8.51064 61.342 8.89218 61.5 9.29 61.5H14.71C15.1078 61.5 15.4894 61.342 15.7707 61.0607C16.052 60.7794 16.21 60.3978 16.21 60V57.68H47.73V60C47.73 60.3978 47.888 60.7794 48.1693 61.0607C48.4506 61.342 48.8322 61.5 49.23 61.5H54.64C55.0378 61.5 55.4194 61.342 55.7007 61.0607C55.982 60.7794 56.14 60.3978 56.14 60V57.65C57.6042 57.5109 58.9642 56.8317 59.9551 55.7447C60.9459 54.6577 61.4967 53.2408 61.5 51.77V43C61.4921 41.4351 60.8649 39.9371 59.7555 38.8333C58.6461 37.7296 57.1449 37.11 55.58 37.11V37.11ZM13.21 58.5H10.79V57.68H13.21V58.5ZM53.14 58.5H50.73V57.68H53.14V58.5ZM58.5 51.77C58.5 52.153 58.4244 52.5322 58.2775 52.8859C58.1307 53.2396 57.9154 53.5609 57.6441 53.8312C57.3729 54.1016 57.0509 54.3157 56.6967 54.4614C56.3425 54.607 55.963 54.6813 55.58 54.68H8.42C8.03701 54.6813 7.65753 54.607 7.30332 54.4614C6.94911 54.3157 6.62713 54.1016 6.35585 53.8312C6.08457 53.5609 5.86933 53.2396 5.72246 52.8859C5.5756 52.5322 5.5 52.153 5.5 51.77V43C5.5 42.617 5.5756 42.2378 5.72246 41.8841C5.86933 41.5304 6.08457 41.2091 6.35585 40.9388C6.62713 40.6684 6.94911 40.4543 7.30332 40.3087C7.65753 40.163 8.03701 40.0887 8.42 40.09H55.58C55.963 40.0887 56.3425 40.163 56.6967 40.3087C57.0509 40.4543 57.3729 40.6684 57.6441 40.9388C57.9154 41.2091 58.1307 41.5304 58.2775 41.8841C58.4244 42.2378 58.5 42.617 58.5 43V51.77Z" fill="black"/>
<path d="M46.58 43.25C45.5159 43.3023 44.5127 43.7618 43.778 44.5334C43.0434 45.305 42.6337 46.3296 42.6337 47.395C42.6337 48.4604 43.0434 49.485 43.778 50.2566C44.5127 51.0282 45.5159 51.4877 46.58 51.54C47.6441 51.4877 48.6474 51.0282 49.382 50.2566C50.1166 49.485 50.5264 48.4604 50.5264 47.395C50.5264 46.3296 50.1166 45.305 49.382 44.5334C48.6474 43.7618 47.6441 43.3023 46.58 43.25V43.25ZM46.58 48.54C46.2948 48.5133 46.0298 48.3812 45.8369 48.1694C45.644 47.9576 45.5371 47.6815 45.5371 47.395C45.5371 47.1085 45.644 46.8324 45.8369 46.6206C46.0298 46.4088 46.2948 46.2767 46.58 46.25C46.8652 46.2767 47.1302 46.4088 47.3231 46.6206C47.516 46.8324 47.6229 47.1085 47.6229 47.395C47.6229 47.6815 47.516 47.9576 47.3231 48.1694C47.1302 48.3812 46.8652 48.5133 46.58 48.54V48.54Z" fill="black"/>
<path d="M17.35 43.25C16.2859 43.3023 15.2827 43.7618 14.5481 44.5334C13.8134 45.305 13.4037 46.3296 13.4037 47.395C13.4037 48.4604 13.8134 49.485 14.5481 50.2566C15.2827 51.0282 16.2859 51.4877 17.35 51.54C18.4141 51.4877 19.4174 51.0282 20.152 50.2566C20.8866 49.485 21.2964 48.4604 21.2964 47.395C21.2964 46.3296 20.8866 45.305 20.152 44.5334C19.4174 43.7618 18.4141 43.3023 17.35 43.25V43.25ZM17.35 48.54C17.0648 48.5133 16.7998 48.3812 16.607 48.1694C16.4141 47.9576 16.3072 47.6815 16.3072 47.395C16.3072 47.1085 16.4141 46.8324 16.607 46.6206C16.7998 46.4088 17.0648 46.2767 17.35 46.25C17.6352 46.2767 17.9002 46.4088 18.0931 46.6206C18.286 46.8324 18.3929 47.1085 18.3929 47.395C18.3929 47.6815 18.286 47.9576 18.0931 48.1694C17.9002 48.3812 17.6352 48.5133 17.35 48.54V48.54Z" fill="black"/>
<path d="M32.0001 43.25C30.9359 43.3023 29.9327 43.7618 29.1981 44.5334C28.4634 45.305 28.0537 46.3296 28.0537 47.395C28.0537 48.4604 28.4634 49.485 29.1981 50.2566C29.9327 51.0282 30.9359 51.4877 32.0001 51.54C33.0642 51.4877 34.0674 51.0282 34.802 50.2566C35.5367 49.485 35.9464 48.4604 35.9464 47.395C35.9464 46.3296 35.5367 45.305 34.802 44.5334C34.0674 43.7618 33.0642 43.3023 32.0001 43.25V43.25ZM32.0001 48.54C31.7148 48.5133 31.4499 48.3812 31.257 48.1694C31.0641 47.9576 30.9572 47.6815 30.9572 47.395C30.9572 47.1085 31.0641 46.8324 31.257 46.6206C31.4499 46.4088 31.7148 46.2767 32.0001 46.25C32.2853 46.2767 32.5502 46.4088 32.7431 46.6206C32.936 46.8324 33.0429 47.1085 33.0429 47.395C33.0429 47.6815 32.936 47.9576 32.7431 48.1694C32.5502 48.3812 32.2853 48.5133 32.0001 48.54V48.54Z" fill="black"/>
<path d="M22.55 30.44C22.6903 30.3014 22.8016 30.1363 22.8777 29.9544C22.9537 29.7724 22.9928 29.5772 22.9928 29.38C22.9928 29.1828 22.9537 28.9875 22.8777 28.8056C22.8016 28.6236 22.6903 28.4586 22.55 28.32C14.14 20.06 20.22 5.41999 32 5.49999C34.6453 5.49679 37.232 6.27897 39.4323 7.74739C41.6326 9.21581 43.3475 11.3044 44.3596 13.7484C45.3717 16.1924 45.6355 18.8819 45.1175 21.476C44.5995 24.0701 43.3231 26.4521 41.45 28.32C41.3026 28.4573 41.1844 28.6229 41.1024 28.8069C41.0204 28.9909 40.9763 29.1895 40.9728 29.3909C40.9692 29.5923 41.0063 29.7924 41.0817 29.9792C41.1572 30.166 41.2695 30.3356 41.4119 30.4781C41.5543 30.6205 41.724 30.7328 41.9108 30.8082C42.0975 30.8837 42.2976 30.9207 42.499 30.9172C42.7004 30.9136 42.899 30.8695 43.083 30.7875C43.267 30.7056 43.4326 30.5874 43.57 30.44C45.0971 28.9259 46.3079 27.1233 47.1319 25.137C47.956 23.1507 48.3768 21.0204 48.37 18.87C47.47 -2.85001 16.53 -2.84001 15.63 18.87C15.6231 21.0204 16.044 23.1507 16.868 25.137C17.6921 27.1233 18.9029 28.9259 20.43 30.44C20.5686 30.5803 20.7336 30.6917 20.9156 30.7677C21.0975 30.8437 21.2928 30.8828 21.49 30.8828C21.6872 30.8828 21.8824 30.8437 22.0644 30.7677C22.2463 30.6917 22.4114 30.5803 22.55 30.44V30.44Z" fill="black"/>
<path d="M38.91 27.28C39.1118 27.2832 39.3123 27.246 39.4995 27.1704C39.6868 27.0948 39.8569 26.9824 40 26.84C41.5798 25.2634 42.6554 23.2528 43.0903 21.0637C43.5251 18.8745 43.2996 16.6056 42.4423 14.5449C41.585 12.4842 40.1346 10.7247 38.2754 9.48995C36.4161 8.25519 34.2319 7.60083 32 7.60996C22.06 7.54996 17 19.88 24 26.84C24.2843 27.1049 24.6604 27.2492 25.049 27.2423C25.4376 27.2355 25.8084 27.078 26.0832 26.8032C26.358 26.5284 26.5155 26.1576 26.5223 25.769C26.5292 25.3804 26.3849 25.0043 26.12 24.72C24.964 23.5631 24.177 22.0895 23.8584 20.4855C23.5398 18.8814 23.704 17.2189 24.3301 15.7082C24.9562 14.1974 26.0162 12.9062 27.3761 11.9977C28.7359 11.0893 30.3346 10.6044 31.97 10.6044C33.6054 10.6044 35.204 11.0893 36.5639 11.9977C37.9237 12.9062 38.9837 14.1974 39.6099 15.7082C40.236 17.2189 40.4001 18.8814 40.0815 20.4855C39.7629 22.0895 38.9759 23.5631 37.82 24.72C37.6135 24.9334 37.4745 25.2029 37.4204 25.4949C37.3663 25.7869 37.3995 26.0883 37.5158 26.3615C37.6322 26.6347 37.8265 26.8676 38.0744 27.0309C38.3224 27.1943 38.613 27.2809 38.91 27.28V27.28Z" fill="black"/>
<path d="M33.7899 22.17C33.7967 22.4696 33.8925 22.7605 34.0651 23.0056C34.2378 23.2506 34.4794 23.4387 34.7593 23.546C35.0392 23.6532 35.3447 23.6747 35.6369 23.6078C35.9291 23.5408 36.1947 23.3884 36.3999 23.17C40.2199 19.43 37.3399 12.61 31.9999 12.71C26.6899 12.61 23.7999 19.36 27.5499 23.12C27.675 23.2865 27.8333 23.4252 28.0149 23.5272C28.1965 23.6292 28.3973 23.6922 28.6046 23.7123C28.8119 23.7325 29.0211 23.7092 29.2189 23.644C29.4167 23.5788 29.5988 23.4732 29.7535 23.3338C29.9082 23.1944 30.0322 23.0243 30.1176 22.8344C30.203 22.6444 30.2479 22.4388 30.2495 22.2305C30.251 22.0223 30.2092 21.816 30.1266 21.6248C30.0441 21.4336 29.9226 21.2616 29.7699 21.12C29.4013 20.7528 29.129 20.3003 28.9773 19.8026C28.8256 19.3049 28.7991 18.7774 28.9002 18.267C29.0013 17.7566 29.2269 17.2791 29.5569 16.8768C29.8869 16.4746 30.3111 16.16 30.7919 15.9611C31.2727 15.7622 31.7951 15.6851 32.3129 15.7366C32.8306 15.7881 33.3276 15.9667 33.7598 16.2565C34.192 16.5462 34.5459 16.9382 34.7901 17.3976C35.0344 17.857 35.1614 18.3697 35.1599 18.89C35.1604 19.3047 35.0785 19.7155 34.9188 20.0983C34.7591 20.4811 34.525 20.8284 34.2299 21.12C33.9528 21.3997 33.7951 21.7762 33.7899 22.17V22.17Z" fill="black"/>
</svg>
