<?xml version="1.0" encoding="UTF-8" standalone="no"?> <svg width="100" height="100" viewBox="0 0 100 100" fill="none" xmlns="http://www.w3.org/2000/svg">
<path d="M85.992 34.4279L67.261 34.4159C65.044 28.2909 59.411 23.9609 52.934 23.3769V16.8579H63.84C64.668 16.8579 65.34 16.1869 65.34 15.3579C65.34 14.5289 64.668 13.8579 63.84 13.8579H39.34C38.511 13.8579 37.84 14.5289 37.84 15.3579C37.84 16.1869 38.511 16.8579 39.34 16.8579H49.935V23.3679C43.261 23.9139 37.934 28.1009 35.884 34.4269L25.041 34.4149C19.166 34.4149 14.327 38.9339 13.815 44.6789C13.786 44.7959 13.771 44.9179 13.771 45.0439V53.4839C13.771 54.3119 14.442 54.9839 15.271 54.9839H24.4C25.229 54.9839 25.9 54.3119 25.9 53.4839V46.5439H35.871C38.452 52.8229 44.569 56.9729 51.435 56.9729C58.292 56.9729 64.416 52.8289 67.001 46.5559H85.991C86.819 46.5559 87.491 45.8849 87.491 45.0559V35.9279C87.491 35.0999 86.82 34.4289 85.992 34.4279ZM84.491 43.5559H65.956C65.268 43.5559 64.684 44.0209 64.511 44.6649C62.581 50.2359 57.338 53.9729 51.435 53.9729C45.66 53.9729 40.533 50.3989 38.503 45.0339C38.497 44.2479 37.886 43.6119 37.114 43.5549C36.992 43.5369 36.868 43.5299 36.742 43.5439H24.4C23.571 43.5439 22.9 44.2149 22.9 45.0439V51.9839H16.771V45.6869C16.771 41.1259 20.481 37.4149 25.04 37.4149L37.001 37.4279C37.002 37.4279 37.004 37.4279 37.005 37.4279C37.008 37.4279 37.011 37.4269 37.014 37.4269C37.164 37.4259 37.307 37.3969 37.444 37.3549C37.47 37.3469 37.496 37.3399 37.522 37.3309C37.656 37.2819 37.78 37.2149 37.892 37.1319C37.913 37.1159 37.932 37.0989 37.952 37.0819C38.065 36.9889 38.168 36.8849 38.25 36.7629C38.254 36.7569 38.257 36.7499 38.261 36.7429C38.342 36.6179 38.401 36.4799 38.442 36.3329C38.446 36.3189 38.455 36.3089 38.459 36.2949C39.988 30.2289 45.079 26.3089 51.428 26.3059C51.43 26.3059 51.432 26.3069 51.435 26.3069C51.437 26.3069 51.44 26.3059 51.442 26.3059C57.585 26.3089 63.053 30.4289 64.738 36.3289C64.741 36.3379 64.745 36.3449 64.748 36.3539C64.773 36.4359 64.804 36.5139 64.842 36.5889C64.851 36.6059 64.86 36.6229 64.869 36.6389C64.907 36.7069 64.948 36.7709 64.995 36.8309C65.009 36.8489 65.024 36.8669 65.039 36.8839C65.086 36.9399 65.137 36.9909 65.192 37.0389C65.21 37.0549 65.229 37.0699 65.247 37.0849C65.303 37.1289 65.361 37.1699 65.424 37.2059C65.446 37.2189 65.468 37.2309 65.491 37.2419C65.551 37.2729 65.613 37.3009 65.678 37.3239C65.709 37.3349 65.74 37.3439 65.771 37.3529C65.828 37.3689 65.886 37.3829 65.946 37.3919C65.991 37.3989 66.037 37.4029 66.084 37.4059C66.115 37.4079 66.144 37.4149 66.175 37.4149L84.492 37.4269V43.5559H84.491Z" fill="black" stroke="black" stroke-width="2.2"/>
<path d="M21.814 59.3978C21.584 58.8348 21.035 58.4658 20.426 58.4658C19.817 58.4658 19.268 58.8338 19.038 59.3978C18.809 59.9578 13.42 73.1528 12.595 78.0418C12.595 78.0428 12.595 78.0438 12.595 78.0448C12.288 79.8798 12.824 81.7238 14.104 83.2358C15.622 85.0288 18.044 86.1418 20.427 86.1418C22.812 86.1418 25.235 85.0268 26.752 83.2318C28.03 81.7198 28.563 79.8768 28.253 78.0428C27.428 73.1528 22.043 59.9578 21.814 59.3978ZM24.459 81.2968C23.497 82.4358 21.951 83.1428 20.425 83.1428C18.9 83.1428 17.355 82.4358 16.391 81.2978C15.896 80.7128 15.348 79.7598 15.551 78.5418C16.074 75.4468 18.744 68.3258 20.424 64.0238C22.103 68.3258 24.771 75.4448 25.293 78.5418C25.5 79.7588 24.954 80.7118 24.459 81.2968Z" fill="black" stroke="black" stroke-width="2.2"/>
</svg>
